<?xml version="1.0" standalone="no"?>
<!DOCTYPE svg PUBLIC "-//W3C//DTD SVG 20010904//EN"
 "http://www.w3.org/TR/2001/REC-SVG-20010904/DTD/svg10.dtd">
<svg version="1.0" xmlns="http://www.w3.org/2000/svg"
 width="460.000000pt" height="362.000000pt" viewBox="0 0 460.000000 362.000000"
 preserveAspectRatio="xMidYMid meet">

<g transform="translate(0.000000,362.000000) scale(0.100000,-0.100000)"
fill="#000000" stroke="none">
<path d="M2150 3119 c-391 -37 -747 -248 -954 -563 -145 -220 -203 -430 -193
-693 11 -300 126 -563 341 -779 106 -105 185 -167 288 -223 310 -170 681 -211
1023 -115 464 132 816 511 896 964 17 96 17 304 0 400 -31 175 -113 362 -227
514 -146 194 -373 353 -621 435 -111 36 -170 48 -308 61 -120 11 -122 11 -245
-1z m450 -67 c449 -118 779 -432 893 -852 46 -167 49 -401 8 -555 -94 -351
-312 -618 -639 -779 -365 -182 -803 -181 -1167 2 -115 57 -214 130 -316 231
-231 230 -342 494 -342 811 0 317 111 581 343 812 150 149 329 256 525 313
161 47 226 55 410 51 150 -3 184 -8 285 -34z"/>
<path d="M1824 2552 c-7 -4 -14 -58 -19 -129 -6 -105 -5 -123 8 -123 9 0 19
17 25 43 16 63 51 109 102 135 40 20 57 22 150 20 l105 -3 3 -487 c1 -301 -2
-496 -8 -512 -13 -35 -66 -66 -112 -66 -21 0 -38 -4 -38 -10 0 -6 88 -10 245
-10 157 0 245 4 245 10 0 6 -19 10 -41 10 -59 0 -106 32 -116 78 -4 20 -8 251
-8 512 l0 475 99 3 c120 3 181 -14 225 -63 16 -18 32 -48 36 -67 12 -58 16
-68 31 -68 13 0 15 17 9 118 -4 64 -8 123 -10 130 -4 9 -105 12 -462 12 -252
0 -463 -4 -469 -8z"/>
<path d="M1637 2249 c-81 -19 -127 -56 -159 -128 -34 -75 -5 -167 69 -212 l35
-22 -51 -24 c-73 -35 -96 -72 -96 -154 0 -53 5 -72 24 -101 62 -90 141 -109
426 -106 194 3 223 7 154 22 -47 10 -50 36 -47 374 3 348 1 338 75 352 21 4
-56 8 -177 8 -118 0 -232 -4 -253 -9z m231 -35 c22 -6 22 -8 20 -153 l-3 -146
-90 -3 c-147 -5 -204 31 -213 133 -6 77 37 144 104 165 34 10 149 12 182 4z
m20 -502 c2 -138 1 -153 -15 -160 -10 -4 -62 -7 -115 -7 -108 0 -131 10 -176
76 -20 29 -23 43 -19 90 6 66 20 93 65 120 50 32 80 38 172 36 l85 -2 3 -153z"/>
<path d="M2490 2230 c0 -5 13 -10 28 -10 61 0 62 -4 62 -362 0 -324 0 -325
-22 -345 -13 -12 -36 -23 -53 -26 -16 -2 70 -5 192 -6 251 -1 305 7 365 53 58
43 82 89 82 151 0 71 -26 111 -99 151 -33 19 -55 34 -48 34 18 0 82 59 99 91
32 64 10 154 -52 208 -62 55 -145 71 -363 71 -121 0 -191 -4 -191 -10z m410
-52 c25 -13 55 -39 68 -58 20 -30 23 -45 20 -97 -6 -100 -64 -142 -195 -143
-110 0 -103 -10 -103 160 0 170 -8 157 100 159 50 1 77 -4 110 -21z m-12 -345
c72 -23 107 -59 121 -125 10 -46 9 -56 -11 -97 -14 -27 -37 -53 -56 -65 -38
-21 -138 -32 -206 -22 l-46 7 0 153 c0 84 3 156 7 159 13 14 137 7 191 -10z"/>
</g>
</svg>
